# xmcd CD database file
#
# Track frame offsets:
#	150
#	14268
#	30672
#	47870
#	63237
#	81902
#	86774
#	98715
#	124372
#	140927
#	155922
#	176250
#	196257
#	210345
#	239707
#	247560
#	258795
#
# Disc length: 4442 seconds
#
# Revision: 2
# Processed by: cddbd v1.5.2PL0 Copyright (c) Steve Scherf et al.
# Submitted via: CDex 1.70beta2
#
DISCID=e6115811
DTITLE=Liv - Skeleton Key
DYEAR=2003
DGENRE=Hardcore
TTITLE0=Rebel
TTITLE1=Evolution
TTITLE2=May I be happy forever
TTITLE3=Fear
TTITLE4=Are you alive?
TTITLE5=One happy peaceful day
TTITLE6=E.N.J.O.Y
TTITLE7=Rose
TTITLE8=HEROES
TTITLE9=Seb and Maxi
TTITLE10=Skeleton key
TTITLE11=Flower
TTITLE12=Star
TTITLE13=FLY
TTITLE14=Laughing psycho
TTITLE15=Go to hell
TTITLE16=蝶と花
EXTD=YEAR: 2003
EXTT0=
EXTT1=
EXTT2=
EXTT3=
EXTT4=
EXTT5=
EXTT6=
EXTT7=
EXTT8=
EXTT9=
EXTT10=
EXTT11=
EXTT12=
EXTT13=
EXTT14=
EXTT15=
EXTT16=
PLAYORDER=
